<?xml version="1.0" encoding="iso-8859-1"?>
<!-- Generator: Adobe Illustrator 19.0.0, SVG Export Plug-In . SVG Version: 6.00 Build 0)  -->
<svg version="1.1" id="Layer_1" xmlns="http://www.w3.org/2000/svg" xmlns:xlink="http://www.w3.org/1999/xlink" x="0px" y="0px"
	 viewBox="0 0 512.461 512.461" style="enable-background:new 0 0 512.461 512.461;" xml:space="preserve">
<g>
	<g>
		<rect x="213.795" y="81.297" width="102.4" height="51.2"/>
	</g>
</g>
<g>
	<g>
		<path d="M503.928,81.297h-17.067V64.231c0-5.12-3.413-8.533-8.533-8.533h-51.2c-5.12,0-8.533,3.413-8.533,8.533v17.067h-85.333
			v59.733c0,5.12-3.413,8.533-8.533,8.533H205.261c-5.12,0-8.533-3.413-8.533-8.533V81.297h-76.8V64.231
			c0-5.12-3.413-8.533-8.533-8.533h-51.2c-5.12,0-8.533,4.267-8.533,8.533v17.067H8.995c-5.12,0-8.533,4.267-8.533,8.533v25.6
			c0,1.707,0.853,3.413,1.707,5.12l9.387,12.8c6.827,9.387,6.827,23.04,0,32.427l-9.387,12.8c-0.853,1.707-1.707,3.413-1.707,5.12
			v25.6c0,5.12,3.413,8.533,8.533,8.533h32.427c8.533,0,16.213,4.267,20.48,11.093s5.12,16.213,0.853,23.04l-57.173,115.2
			c-10.24,22.187-5.973,47.787,9.387,67.413c12.8,13.653,30.72,22.187,51.2,22.187h96.427c15.36,0,29.013-8.533,35.84-23.04
			c6.827-14.507,4.267-30.72-5.973-41.813l-11.093-11.947c-1.707-2.56-1.707-4.267-1.707-6.827l22.187-69.973h45.227
			c38.4,0,69.12-30.72,69.12-69.12v-16.213h51.2c5.12,0,8.533-3.413,8.533-8.533h102.4c5.12,0,8.533-3.413,8.533-8.533v-25.6h17.067
			c5.12,0,8.533-3.413,8.533-8.533v-76.8C512.461,85.564,509.048,81.297,503.928,81.297z M68.728,72.764h34.133v8.533H68.728V72.764
			z M60.195,132.497h102.4c5.12,0,8.533,3.413,8.533,8.533s-3.413,8.533-8.533,8.533h-102.4c-5.12,0-8.533-3.413-8.533-8.533
			C51.661,136.764,55.075,132.497,60.195,132.497z M60.195,183.697c-5.12,0-8.533-3.413-8.533-8.533c0-5.12,3.413-8.533,8.533-8.533
			h102.4c5.12,0,8.533,3.413,8.533,8.533c0,5.12-3.413,8.533-8.533,8.533H60.195z M145.528,277.564
			c0,9.387-7.68,17.067-17.067,17.067s-17.067-7.68-17.067-17.067s7.68-17.067,17.067-17.067S145.528,268.177,145.528,277.564z
			 M194.168,271.591l-6.827,21.333l-23.893,76.8c0,0.853,0,0.853,0,1.707c-0.853,6.827,0.853,13.653,5.12,18.773
			c0,0,0,0.853,0.853,0.853l11.093,12.8c5.973,6.827,7.68,15.36,3.413,23.893c-3.413,8.533-11.093,12.8-20.48,12.8h-97.28
			c-15.36,0-29.013-5.973-37.547-17.067c-11.947-13.653-14.507-33.28-6.827-49.493l56.32-113.493
			c6.827-12.8,5.973-28.16-1.707-40.107c-0.853-0.853-0.853-1.707-1.707-2.56h32.427l-69.973,163.84
			c-4.267,10.24-2.56,22.187,5.12,30.72c5.12,6.827,13.653,10.24,23.893,10.24h40.96c11.093,0,21.333-6.827,24.747-17.92
			l62.293-186.88h16.213L194.168,271.591z M111.395,362.897c0,9.387-7.68,17.067-17.067,17.067c-9.387,0-17.067-7.68-17.067-17.067
			s7.68-17.067,17.067-17.067C103.715,345.831,111.395,353.511,111.395,362.897z M299.128,234.044
			c0,29.013-23.04,52.053-52.053,52.053h-40.107l15.36-48.64c6.827,13.653,17.92,21.333,40.107,28.16
			c0.853,0,1.707,0.853,2.56,0.853c3.413,0,6.827-2.56,7.68-5.973c1.707-4.267-0.853-9.387-5.12-11.093
			c-24.747-8.533-29.867-15.36-34.133-29.867c0-0.853-0.853-0.853-0.853-1.707h66.56V234.044z M469.795,192.231h-93.867
			c0-9.387,7.68-17.067,17.067-17.067h76.8V192.231z M469.795,81.297h-34.133v-8.533h34.133V81.297z"/>
	</g>
</g>
<g>
</g>
<g>
</g>
<g>
</g>
<g>
</g>
<g>
</g>
<g>
</g>
<g>
</g>
<g>
</g>
<g>
</g>
<g>
</g>
<g>
</g>
<g>
</g>
<g>
</g>
<g>
</g>
<g>
</g>
</svg>
