<?xml version="1.0" encoding="UTF-8" standalone="no"?>
<!-- Created with Inkscape (http://www.inkscape.org/) -->

<svg
   xmlns:osb="http://www.openswatchbook.org/uri/2009/osb"
   xmlns:dc="http://purl.org/dc/elements/1.1/"
   xmlns:cc="http://creativecommons.org/ns#"
   xmlns:rdf="http://www.w3.org/1999/02/22-rdf-syntax-ns#"
   xmlns:svg="http://www.w3.org/2000/svg"
   xmlns="http://www.w3.org/2000/svg"
   xmlns:sodipodi="http://sodipodi.sourceforge.net/DTD/sodipodi-0.dtd"
   xmlns:inkscape="http://www.inkscape.org/namespaces/inkscape"
   width="1280"
   height="1280"
   viewBox="0 0 338.66666 338.66666"
   version="1.1"
   id="svg8"
   inkscape:version="0.92.2 (5c3e80d, 2017-08-06)"
   sodipodi:docname="logo.svg"
   inkscape:export-filename="C:\p\without-guns-for-vs-code\images\logo.png"
   inkscape:export-xdpi="96"
   inkscape:export-ydpi="96">
  <defs
     id="defs2">
    <linearGradient
       id="linearGradient5082"
       osb:paint="solid">
      <stop
         style="stop-color:#000000;stop-opacity:1;"
         offset="0"
         id="stop5080" />
    </linearGradient>
  </defs>
  <sodipodi:namedview
     id="base"
     pagecolor="#ffffff"
     bordercolor="#666666"
     borderopacity="1.0"
     inkscape:pageopacity="0.0"
     inkscape:pageshadow="2"
     inkscape:zoom="0.49497475"
     inkscape:cx="48.895767"
     inkscape:cy="500.48371"
     inkscape:document-units="mm"
     inkscape:current-layer="layer1"
     showgrid="false"
     units="px"
     inkscape:window-width="2560"
     inkscape:window-height="1378"
     inkscape:window-x="-8"
     inkscape:window-y="-8"
     inkscape:window-maximized="1"
     fit-margin-top="0"
     fit-margin-left="0"
     fit-margin-right="0"
     fit-margin-bottom="0"
     inkscape:snap-grids="true" />
  <metadata
     id="metadata5">
    <rdf:RDF>
      <cc:Work
         rdf:about="">
        <dc:format>image/svg+xml</dc:format>
        <dc:type
           rdf:resource="http://purl.org/dc/dcmitype/StillImage" />
        <dc:title></dc:title>
      </cc:Work>
    </rdf:RDF>
  </metadata>
  <g
     inkscape:label="Ebene 1"
     inkscape:groupmode="layer"
     id="layer1"
     transform="translate(4.5428653e-5,41.666619)">
    <circle
       id="path583"
       cx="169.33328"
       cy="127.66672"
       style="stroke-width:0.38739756;fill-opacity:1;fill:#ffffff"
       r="135" />
    <g
       transform="matrix(0.20677615,-0.00129412,0.00129412,0.20677615,79.427679,33.687808)"
       id="g124-5-0">
      <g
         id="g86-5-2">
        <g
           id="g84-9-6">
          <rect
             x="213.795"
             y="81.296997"
             width="102.4"
             height="51.200001"
             id="rect82-3-3" />
        </g>
      </g>
      <g
         id="g92-9-9">
        <g
           id="g90-7-8">
          <path
             inkscape:connector-curvature="0"
             d="M 503.928,81.297 H 486.861 V 64.231 c 0,-5.12 -3.413,-8.533 -8.533,-8.533 h -51.2 c -5.12,0 -8.533,3.413 -8.533,8.533 v 17.067 h -85.333 v 59.733 c 0,5.12 -3.413,8.533 -8.533,8.533 H 205.261 c -5.12,0 -8.533,-3.413 -8.533,-8.533 V 81.297 h -76.8 V 64.231 c 0,-5.12 -3.413,-8.533 -8.533,-8.533 h -51.2 c -5.12,0 -8.533,4.267 -8.533,8.533 V 81.298 H 8.995 c -5.12,0 -8.533,4.267 -8.533,8.533 v 25.6 c 0,1.707 0.853,3.413 1.707,5.12 l 9.387,12.8 c 6.827,9.387 6.827,23.04 0,32.427 l -9.387,12.8 c -0.853,1.707 -1.707,3.413 -1.707,5.12 v 25.6 c 0,5.12 3.413,8.533 8.533,8.533 h 32.427 c 8.533,0 16.213,4.267 20.48,11.093 4.267,6.826 5.12,16.213 0.853,23.04 l -57.173,115.2 c -10.24,22.187 -5.973,47.787 9.387,67.413 12.8,13.653 30.72,22.187 51.2,22.187 h 96.427 c 15.36,0 29.013,-8.533 35.84,-23.04 6.827,-14.507 4.267,-30.72 -5.973,-41.813 L 181.37,379.964 c -1.707,-2.56 -1.707,-4.267 -1.707,-6.827 l 22.187,-69.973 h 45.227 c 38.4,0 69.12,-30.72 69.12,-69.12 v -16.213 h 51.2 c 5.12,0 8.533,-3.413 8.533,-8.533 h 102.4 c 5.12,0 8.533,-3.413 8.533,-8.533 v -25.6 h 17.067 c 5.12,0 8.533,-3.413 8.533,-8.533 v -76.8 c -0.002,-4.268 -3.415,-8.535 -8.535,-8.535 z m -435.2,-8.533 h 34.133 v 8.533 H 68.728 Z m -8.533,59.733 h 102.4 c 5.12,0 8.533,3.413 8.533,8.533 0,5.12 -3.413,8.533 -8.533,8.533 h -102.4 c -5.12,0 -8.533,-3.413 -8.533,-8.533 -10e-4,-4.266 3.413,-8.533 8.533,-8.533 z m 0,51.2 c -5.12,0 -8.533,-3.413 -8.533,-8.533 0,-5.12 3.413,-8.533 8.533,-8.533 h 102.4 c 5.12,0 8.533,3.413 8.533,8.533 0,5.12 -3.413,8.533 -8.533,8.533 z m 85.333,93.867 c 0,9.387 -7.68,17.067 -17.067,17.067 -9.387,0 -17.067,-7.68 -17.067,-17.067 0,-9.387 7.68,-17.067 17.067,-17.067 9.387,0 17.067,7.68 17.067,17.067 z m 48.64,-5.973 -6.827,21.333 -23.893,76.8 c 0,0.853 0,0.853 0,1.707 -0.853,6.827 0.853,13.653 5.12,18.773 0,0 0,0.853 0.853,0.853 l 11.093,12.8 c 5.973,6.827 7.68,15.36 3.413,23.893 -3.413,8.533 -11.093,12.8 -20.48,12.8 h -97.28 c -15.36,0 -29.013,-5.973 -37.547,-17.067 C 16.673,409.83 14.113,390.203 21.793,373.99 l 56.32,-113.493 c 6.827,-12.8 5.973,-28.16 -1.707,-40.107 -0.853,-0.853 -0.853,-1.707 -1.707,-2.56 h 32.427 L 37.153,381.67 c -4.267,10.24 -2.56,22.187 5.12,30.72 5.12,6.827 13.653,10.24 23.893,10.24 h 40.96 c 11.093,0 21.333,-6.827 24.747,-17.92 l 62.293,-186.88 h 16.213 z m -82.773,91.306 c 0,9.387 -7.68,17.067 -17.067,17.067 -9.387,0 -17.067,-7.68 -17.067,-17.067 0,-9.387 7.68,-17.067 17.067,-17.067 9.387,0.001 17.067,7.681 17.067,17.067 z M 299.128,234.044 c 0,29.013 -23.04,52.053 -52.053,52.053 h -40.107 l 15.36,-48.64 c 6.827,13.653 17.92,21.333 40.107,28.16 0.853,0 1.707,0.853 2.56,0.853 3.413,0 6.827,-2.56 7.68,-5.973 1.707,-4.267 -0.853,-9.387 -5.12,-11.093 -24.747,-8.533 -29.867,-15.36 -34.133,-29.867 0,-0.853 -0.853,-0.853 -0.853,-1.707 h 66.56 v 16.214 z m 170.667,-41.813 h -93.867 c 0,-9.387 7.68,-17.067 17.067,-17.067 h 76.8 z m 0,-110.934 h -34.133 v -8.533 h 34.133 z"
             id="path88-2-0" />
        </g>
      </g>
      <g
         id="g94-5-9" />
      <g
         id="g96-5-6" />
      <g
         id="g98-5-1" />
      <g
         id="g100-9-2" />
      <g
         id="g102-5-1" />
      <g
         id="g104-4-7" />
      <g
         id="g106-6-8" />
      <g
         id="g108-5-1" />
      <g
         id="g110-7-8" />
      <g
         id="g112-1-5" />
      <g
         id="g114-5-8" />
      <g
         id="g116-0-7" />
      <g
         id="g118-8-8" />
      <g
         id="g120-9-2" />
      <g
         id="g122-4-6" />
    </g>
    <g
       id="g343"
       transform="matrix(0.01278347,-0.79364617,0.79364617,0.01278347,-2.7047633,294.25049)">
      <g
         id="g286">
        <path
           id="path282"
           d="M 213.333,0 C 95.509,0 0,95.514 0,213.333 c 0,117.819 95.509,213.333 213.333,213.333 117.815,0 213.333,-95.514 213.333,-213.333 C 426.666,95.514 331.149,0 213.333,0 Z m 0,372.527 c -87.778,0 -159.194,-71.411 -159.194,-159.194 0,-87.783 71.416,-159.193 159.194,-159.193 87.778,0 159.194,71.415 159.194,159.194 0,87.779 -71.416,159.193 -159.194,159.193 z"
           style="fill:#f05228"
           inkscape:connector-curvature="0" />
        <rect
           id="rect284"
           height="54.139"
           width="392.53"
           style="fill:#f05228"
           transform="matrix(-0.7071,-0.7071,0.7071,-0.7071,213.3327,515.0204)"
           y="186.258"
           x="17.066" />
      </g>
      <g
         id="g288" />
      <g
         id="g290" />
      <g
         id="g292" />
      <g
         id="g294" />
      <g
         id="g296" />
      <g
         id="g298" />
      <g
         id="g300" />
      <g
         id="g302" />
      <g
         id="g304" />
      <g
         id="g306" />
      <g
         id="g308" />
      <g
         id="g310" />
      <g
         id="g312" />
      <g
         id="g314" />
      <g
         id="g316" />
    </g>
    <g
       transform="matrix(0.20677615,-0.00129412,0.00129412,0.20677615,177.89426,138.7342)"
       id="g124-5-0-3">
      <g
         id="g86-5-2-1">
        <g
           id="g84-9-6-4">
          <rect
             x="213.795"
             y="81.296997"
             width="102.4"
             height="51.200001"
             id="rect82-3-3-1" />
        </g>
      </g>
      <g
         id="g92-9-9-24">
        <g
           id="g90-7-8-3">
          <path
             inkscape:connector-curvature="0"
             d="M 503.928,81.297 H 486.861 V 64.231 c 0,-5.12 -3.413,-8.533 -8.533,-8.533 h -51.2 c -5.12,0 -8.533,3.413 -8.533,8.533 v 17.067 h -85.333 v 59.733 c 0,5.12 -3.413,8.533 -8.533,8.533 H 205.261 c -5.12,0 -8.533,-3.413 -8.533,-8.533 V 81.297 h -76.8 V 64.231 c 0,-5.12 -3.413,-8.533 -8.533,-8.533 h -51.2 c -5.12,0 -8.533,4.267 -8.533,8.533 V 81.298 H 8.995 c -5.12,0 -8.533,4.267 -8.533,8.533 v 25.6 c 0,1.707 0.853,3.413 1.707,5.12 l 9.387,12.8 c 6.827,9.387 6.827,23.04 0,32.427 l -9.387,12.8 c -0.853,1.707 -1.707,3.413 -1.707,5.12 v 25.6 c 0,5.12 3.413,8.533 8.533,8.533 h 32.427 c 8.533,0 16.213,4.267 20.48,11.093 4.267,6.826 5.12,16.213 0.853,23.04 l -57.173,115.2 c -10.24,22.187 -5.973,47.787 9.387,67.413 12.8,13.653 30.72,22.187 51.2,22.187 h 96.427 c 15.36,0 29.013,-8.533 35.84,-23.04 6.827,-14.507 4.267,-30.72 -5.973,-41.813 L 181.37,379.964 c -1.707,-2.56 -1.707,-4.267 -1.707,-6.827 l 22.187,-69.973 h 45.227 c 38.4,0 69.12,-30.72 69.12,-69.12 v -16.213 h 51.2 c 5.12,0 8.533,-3.413 8.533,-8.533 h 102.4 c 5.12,0 8.533,-3.413 8.533,-8.533 v -25.6 h 17.067 c 5.12,0 8.533,-3.413 8.533,-8.533 v -76.8 c -0.002,-4.268 -3.415,-8.535 -8.535,-8.535 z m -435.2,-8.533 h 34.133 v 8.533 H 68.728 Z m -8.533,59.733 h 102.4 c 5.12,0 8.533,3.413 8.533,8.533 0,5.12 -3.413,8.533 -8.533,8.533 h -102.4 c -5.12,0 -8.533,-3.413 -8.533,-8.533 -10e-4,-4.266 3.413,-8.533 8.533,-8.533 z m 0,51.2 c -5.12,0 -8.533,-3.413 -8.533,-8.533 0,-5.12 3.413,-8.533 8.533,-8.533 h 102.4 c 5.12,0 8.533,3.413 8.533,8.533 0,5.12 -3.413,8.533 -8.533,8.533 z m 85.333,93.867 c 0,9.387 -7.68,17.067 -17.067,17.067 -9.387,0 -17.067,-7.68 -17.067,-17.067 0,-9.387 7.68,-17.067 17.067,-17.067 9.387,0 17.067,7.68 17.067,17.067 z m 48.64,-5.973 -6.827,21.333 -23.893,76.8 c 0,0.853 0,0.853 0,1.707 -0.853,6.827 0.853,13.653 5.12,18.773 0,0 0,0.853 0.853,0.853 l 11.093,12.8 c 5.973,6.827 7.68,15.36 3.413,23.893 -3.413,8.533 -11.093,12.8 -20.48,12.8 h -97.28 c -15.36,0 -29.013,-5.973 -37.547,-17.067 C 16.673,409.83 14.113,390.203 21.793,373.99 l 56.32,-113.493 c 6.827,-12.8 5.973,-28.16 -1.707,-40.107 -0.853,-0.853 -0.853,-1.707 -1.707,-2.56 h 32.427 L 37.153,381.67 c -4.267,10.24 -2.56,22.187 5.12,30.72 5.12,6.827 13.653,10.24 23.893,10.24 h 40.96 c 11.093,0 21.333,-6.827 24.747,-17.92 l 62.293,-186.88 h 16.213 z m -82.773,91.306 c 0,9.387 -7.68,17.067 -17.067,17.067 -9.387,0 -17.067,-7.68 -17.067,-17.067 0,-9.387 7.68,-17.067 17.067,-17.067 9.387,0.001 17.067,7.681 17.067,17.067 z M 299.128,234.044 c 0,29.013 -23.04,52.053 -52.053,52.053 h -40.107 l 15.36,-48.64 c 6.827,13.653 17.92,21.333 40.107,28.16 0.853,0 1.707,0.853 2.56,0.853 3.413,0 6.827,-2.56 7.68,-5.973 1.707,-4.267 -0.853,-9.387 -5.12,-11.093 -24.747,-8.533 -29.867,-15.36 -34.133,-29.867 0,-0.853 -0.853,-0.853 -0.853,-1.707 h 66.56 v 16.214 z m 170.667,-41.813 h -93.867 c 0,-9.387 7.68,-17.067 17.067,-17.067 h 76.8 z m 0,-110.934 h -34.133 v -8.533 h 34.133 z"
             id="path88-2-0-3" />
        </g>
      </g>
      <g
         id="g94-5-9-6" />
      <g
         id="g96-5-6-2" />
      <g
         id="g98-5-1-4" />
      <g
         id="g100-9-2-8" />
      <g
         id="g102-5-1-5" />
      <g
         id="g104-4-7-5" />
      <g
         id="g106-6-8-0" />
      <g
         id="g108-5-1-8" />
      <g
         id="g110-7-8-7" />
      <g
         id="g112-1-5-8" />
      <g
         id="g114-5-8-6" />
      <g
         id="g116-0-7-6" />
      <g
         id="g118-8-8-8" />
      <g
         id="g120-9-2-5" />
      <g
         id="g122-4-6-2" />
    </g>
  </g>
</svg>
